<svg width="32" height="12" viewBox="0 0 32 12" fill="none" xmlns="http://www.w3.org/2000/svg">
<path d="M24.3486 7.43722C22.6086 7.29985 21.125 8.1149 21.0426 9.2688C20.9602 10.4227 22.2973 11.4301 24.0373 11.5583C25.7773 11.6865 27.27 10.8806 27.3524 9.72669C27.4348 8.5728 26.0886 7.56543 24.3486 7.43722ZM24.138 10.2853C23.2222 10.2212 22.5079 9.79994 22.5445 9.36952C22.5811 8.9391 23.3412 8.61858 24.257 8.69184C25.1728 8.76511 25.8871 9.17721 25.8505 9.60763C25.8139 10.0381 25.0446 10.3586 24.138 10.2853V10.2853Z" fill="#848484"/>
<path d="M31.1467 3.95129L27.8773 3.17239L27.1196 6.35282L30.389 7.13171L31.1467 3.95129Z" fill="#848484"/>
<path d="M27.8738 3.18113L27.4017 3.06865L25.7845 9.85698L26.2566 9.96947L27.8738 3.18113Z" fill="#848484"/>
<path d="M4.11884 7.8401C3.58768 7.47379 3.20304 7.84016 2.02167 7.09837C1.78955 6.92585 1.5883 6.71525 1.42642 6.47559C1.34621 6.63954 1.23413 6.78595 1.09673 6.90609C0.858626 7.10757 -0.478427 7.48303 0.180942 9.07651C0.492584 9.07549 0.799861 9.0031 1.07924 8.865C1.35861 8.7269 1.60267 8.52676 1.79273 8.27978C1.72862 8.3622 0.876938 9.49775 1.43557 10.3128C1.43557 10.3128 2.19568 10.6242 3.11147 9.30546C2.19568 10.6242 2.76346 11.2194 2.76346 11.2286C3.72504 11.4667 4.476 10.2578 4.53094 10.1662C4.36135 10.4369 4.25729 10.7435 4.22708 11.0615C4.19687 11.3794 4.24135 11.7001 4.35694 11.9978C6.09694 12.0619 5.96873 10.6882 6.06946 10.386C6.1351 10.2145 6.23128 10.0562 6.35336 9.91896C6.07248 9.85943 5.80531 9.7476 5.56578 9.58929C4.38441 8.75592 4.65 8.20642 4.11884 7.8401Z" fill="white"/>
<path d="M9.42125 0.110917C8.61536 -0.447715 1.06924 1.20983 0.528928 2.71173C0.409875 3.05057 0.757887 3.53592 1.14252 3.94802C1.23968 3.639 1.3816 3.34593 1.56377 3.07807C1.76236 2.71656 2.0398 2.40438 2.3755 2.16474C2.7112 1.92509 3.09657 1.76414 3.50298 1.69376C3.90939 1.62339 4.32643 1.64545 4.72316 1.75826C5.1199 1.87108 5.48614 2.0717 5.79472 2.34539C6.60977 3.00476 6.59147 3.52679 6.92115 3.75574C7.25083 3.98469 7.72704 3.75571 8.63367 4.29603C9.00137 4.48567 9.3215 4.75594 9.57016 5.08661C9.81881 5.41728 9.98956 5.79985 10.0697 6.20575C10.1498 6.61164 10.1372 7.0304 10.0329 7.43075C9.92852 7.8311 9.7351 8.20266 9.46704 8.5178C9.27867 8.78038 9.05703 9.01743 8.80767 9.22298C9.32967 9.43361 9.90662 9.58014 10.1814 9.34203C11.381 8.31635 10.2363 0.669548 9.42125 0.110917Z" fill="white"/>
<path d="M8.79852 7.76689C9.1231 7.32368 9.25994 6.77039 9.17937 6.22698C9.0988 5.68356 8.80732 5.19377 8.3681 4.8638C8.04388 4.65257 7.66527 4.54017 7.27831 4.54017C6.89136 4.54017 6.51274 4.65257 6.18852 4.8638C6.26444 4.48555 6.22966 4.09346 6.08834 3.73449C5.94702 3.37552 5.70518 3.06493 5.39179 2.83994C4.92283 2.56439 4.36693 2.47665 3.8359 2.59434C3.30486 2.71202 2.83808 3.02637 2.52944 3.47424C2.2208 3.92211 2.0932 4.47032 2.1723 5.00846C2.25139 5.54659 2.53133 6.03475 2.95578 6.37488C3.28 6.5861 3.65862 6.69862 4.04557 6.69862C4.43253 6.69862 4.81115 6.5861 5.13537 6.37488C5.05638 6.75452 5.08966 7.14896 5.23114 7.51C5.37263 7.87104 5.6162 8.18301 5.9321 8.4079C6.39736 8.70249 6.96049 8.80052 7.4979 8.68034C8.0353 8.56015 8.50308 8.23161 8.79852 7.76689V7.76689ZM5.55662 5.01952C5.43308 5.22377 5.251 5.38612 5.03401 5.48558C4.81702 5.58504 4.57515 5.61698 4.33978 5.57725C4.10441 5.53752 3.88642 5.42796 3.7141 5.26278C3.54178 5.0976 3.42309 4.88443 3.37345 4.65095C3.3238 4.41747 3.34549 4.17449 3.43569 3.95349C3.52589 3.73249 3.68043 3.5437 3.87927 3.41164C4.07811 3.27958 4.31206 3.21031 4.55074 3.21287C4.78943 3.21544 5.02183 3.28975 5.21778 3.42606C5.47361 3.59278 5.65293 3.85413 5.71644 4.15281C5.77995 4.45149 5.72248 4.76314 5.55662 5.01952V5.01952ZM6.66473 7.14411C6.4896 7.01029 6.35757 6.82804 6.28501 6.61992C6.21244 6.4118 6.20253 6.18702 6.25649 5.97332C6.31045 5.75963 6.42592 5.56644 6.58859 5.41772C6.75126 5.26901 6.95398 5.17131 7.17165 5.13668C7.38931 5.10205 7.61236 5.13209 7.81315 5.22298C8.01394 5.31387 8.18365 5.46161 8.30127 5.64801C8.41888 5.83441 8.47922 6.05122 8.47482 6.27158C8.47042 6.49194 8.40148 6.70621 8.27652 6.88777C8.08857 7.12641 7.81473 7.28205 7.51353 7.32141C7.21233 7.36077 6.90769 7.28071 6.66473 7.09838V7.14411Z" fill="white"/>
<path d="M20.5572 2.5011C20.7331 2.31566 20.8311 2.06983 20.8311 1.81426C20.8311 1.5587 20.7331 1.31287 20.5572 1.12742C20.4866 1.01753 20.3932 0.924024 20.2834 0.853197C20.1736 0.78237 20.05 0.735896 19.9207 0.716812C19.7915 0.697729 19.6596 0.706448 19.5341 0.742524C19.4085 0.778601 19.2921 0.841196 19.1927 0.925973C18.9838 1.10813 18.8559 1.36582 18.837 1.64233C18.8181 1.91884 18.9098 2.1915 19.092 2.40038C19.2741 2.60926 19.5318 2.73721 19.8083 2.7561C20.0848 2.77499 20.3575 2.68327 20.5664 2.5011H20.5572Z" fill="#FF4B1F"/>
<path d="M15.438 1.44792C15.4598 1.56668 15.4348 1.68937 15.3682 1.79011C15.3016 1.89085 15.1986 1.96179 15.0808 1.9882C15.0187 2.00911 14.9527 2.01586 14.8877 2.00799C14.8227 2.00012 14.7602 1.97782 14.7049 1.94271C14.6496 1.90759 14.6029 1.8606 14.5681 1.80509C14.5333 1.74959 14.5113 1.68706 14.5038 1.62198C14.4581 1.33808 14.6504 0.962524 14.9617 0.962524C15.0867 0.971308 15.2041 1.02559 15.2918 1.11501C15.3796 1.20442 15.4316 1.32282 15.438 1.44792Z" fill="#FF4B1F"/>
<path d="M20.31 9.59842C20.1754 9.72663 19.9967 9.79819 19.8109 9.79819C19.625 9.79819 19.4463 9.72663 19.3118 9.59842C19.2382 9.53068 19.1809 9.44706 19.1444 9.35394C19.1079 9.26081 19.0931 9.16064 19.101 9.06093C19.109 8.96123 19.1395 8.8646 19.1903 8.77844C19.2411 8.69227 19.3108 8.61881 19.3942 8.56358C19.7422 8.27968 20.3924 8.22469 20.6213 8.6368C20.6869 8.80855 20.6918 8.9976 20.6351 9.1725C20.5785 9.3474 20.4638 9.4977 20.31 9.59842V9.59842Z" fill="#FF4B1F"/>
<path d="M11.1246 7.54709C12.5074 6.89688 12.8738 5.90782 12.4891 5.02867C11.8572 3.59088 12.0587 1.96989 13.5423 2.01568C14.1742 2.01568 14.5222 2.65678 14.2658 3.4352C13.8994 4.53415 15.3464 4.24109 15.383 3.19709C15.3751 2.82545 15.5105 2.46503 15.7611 2.19052C16.0117 1.91601 16.3584 1.74847 16.7292 1.72268C17.3062 1.66773 17.9198 2.18059 17.645 3.1147C17.526 3.55428 16.9032 3.81979 17.3703 4.19527C17.8373 4.57074 18.2036 3.51757 19.2019 3.49926C19.3492 3.49241 19.496 3.52127 19.6297 3.58332C19.7635 3.64538 19.8803 3.73887 19.9702 3.85576C20.0602 3.97264 20.1205 4.10952 20.1462 4.25474C20.1718 4.39996 20.162 4.5492 20.1176 4.68983C19.8795 5.35835 19.3026 5.42244 18.7531 5.46823C18.2037 5.51402 18.0571 6.47559 18.8172 6.26496C19.5773 6.05433 20.484 5.82534 20.3832 7.02502C20.3832 7.49208 19.7513 7.81267 18.7165 7.55625C18.3593 7.46467 18.1212 7.41887 17.8648 7.76687C17.6084 8.11487 17.819 8.3255 18.2952 8.9116C18.3842 9.02943 18.4433 9.16699 18.4676 9.3126C18.4919 9.45821 18.4806 9.6076 18.4347 9.74791C18.3889 9.88822 18.3097 10.0154 18.2041 10.1185C18.0985 10.2216 17.9695 10.2977 17.8282 10.3403C17.6627 10.4038 17.4852 10.4297 17.3084 10.4164C17.1316 10.4031 16.96 10.3507 16.8059 10.2632C16.6518 10.1756 16.519 10.055 16.417 9.91001C16.3151 9.76498 16.2466 9.59917 16.2164 9.4245C16.0332 8.81092 15.6028 8.34377 15.3006 8.74671C14.9984 9.14966 15.8684 9.73581 15.7676 10.2853C15.7067 10.435 15.61 10.5674 15.4859 10.6711C15.3619 10.7747 15.2144 10.8465 15.0562 10.8799C14.8981 10.9133 14.7342 10.9075 14.5788 10.8629C14.4234 10.8183 14.2814 10.7363 14.165 10.6241C13.2492 9.94644 13.872 9.22293 13.295 8.29799C12.7181 7.37304 11.7015 7.97751 11.262 8.00498C10.8224 8.03246 10.7949 7.76688 11.1246 7.54709Z" fill="#FF4B1F"/>
</svg>
